<svg data-name="Слой 1" xmlns="http://www.w3.org/2000/svg" viewBox="0 0 969.07 147.78"><path d="M0 0h68.7c22.21 0 37.57 5.81 47.32 15.57 8.51 8.51 12.87 19.72 12.87 34.45 0 22.21-11.83 36.94-29.89 44.62l34.66 50.64H87.13l-29.26-44H40.26v44H0zm66.83 69.73c13.7 0 21.58-6.64 21.58-17.64 0-11.41-8.28-17.23-21.79-17.23H40.26v34.87zm79.3 36.74V33h39.43v60.81c0 12.25 6.43 18.89 16 18.89 9.34 0 16.4-6.64 16.4-18.89V33h39.43v112.28h-39.46v-15.36c-7.26 9.34-17.64 17.85-33.62 17.85-23.87 0-38.18-15.77-38.18-41.3z" fill="#3f475f"/><path d="M280.82 0h56c51.89 0 82 29.89 82 72.23 0 41.92-30.51 73.06-82.81 73.06h-55.19zm56.66 109.59c24.08 0 40.06-13.28 40.06-37.15 0-23.25-16-37.15-40.06-37.15h-16.35v74.3zM418.64 0h45l33 91.94 33-91.94h44.21l-58.91 146.32h-37.36zM588 0h68.7c22.21 0 37.57 5.81 47.32 15.57 8.51 8.51 12.87 19.72 12.87 34.45 0 22.21-11.83 36.94-29.89 44.62l34.66 50.64h-46.53l-29.26-44h-17.6v44H588zm66.83 69.74c13.7 0 21.58-6.64 21.58-17.64.01-11.42-8.28-17.24-21.78-17.24h-26.36v34.87z" fill="#498ebf"/><path d="M740.35 123.49h19.09v21.79h-19.09zm52.72-85.51h16v28c7.89-17.85 23.45-30.72 43.79-29.89v17.25h-1.25c-23.45 0-42.55 16.81-42.55 49.19v42.75h-16zm82.4 66.62V37.98h16v62.68c0 19.92 10.79 32.38 29.68 32.38 18.26 0 32.17-13.49 32.17-33.62V37.98h15.77v107.3H953.3V126.6c-7.26 11.62-18.26 21-36.74 21-25.94-.04-41.09-17.47-41.09-43z" fill="#9facb4"/></svg>